<mxfile host="app.diagrams.net" modified="2022-09-03T00:33:36.702Z" agent="5.0 (Windows NT 10.0; Win64; x64) AppleWebKit/537.36 (KHTML, like Gecko) Chrome/105.0.0.0 Safari/537.36" etag="H6pX_GhRBcj88nIUSlX3" version="20.2.8" type="github">
  <diagram id="86ce4yR2oJz81-V1l8a7" name="Página-1">
    <mxGraphModel dx="868" dy="482" grid="1" gridSize="10" guides="1" tooltips="1" connect="1" arrows="1" fold="1" page="1" pageScale="1" pageWidth="827" pageHeight="1169" math="0" shadow="0">
      <root>
        <mxCell id="0" />
        <mxCell id="1" parent="0" />
        <mxCell id="3GkReMob0uXT9uwZEKK7-34" style="edgeStyle=orthogonalEdgeStyle;rounded=0;orthogonalLoop=1;jettySize=auto;html=1;entryX=0.108;entryY=0.017;entryDx=0;entryDy=0;entryPerimeter=0;" edge="1" parent="1" source="3GkReMob0uXT9uwZEKK7-23" target="3GkReMob0uXT9uwZEKK7-29">
          <mxGeometry relative="1" as="geometry" />
        </mxCell>
        <mxCell id="3GkReMob0uXT9uwZEKK7-23" value="EMPRESA" style="whiteSpace=wrap;html=1;" vertex="1" parent="1">
          <mxGeometry x="50" y="80" width="120" height="60" as="geometry" />
        </mxCell>
        <mxCell id="3GkReMob0uXT9uwZEKK7-24" value="VAGAS" style="whiteSpace=wrap;html=1;" vertex="1" parent="1">
          <mxGeometry x="430" y="400" width="120" height="60" as="geometry" />
        </mxCell>
        <mxCell id="3GkReMob0uXT9uwZEKK7-31" style="edgeStyle=orthogonalEdgeStyle;rounded=0;orthogonalLoop=1;jettySize=auto;html=1;entryX=0;entryY=0.5;entryDx=0;entryDy=0;" edge="1" parent="1" source="3GkReMob0uXT9uwZEKK7-25" target="3GkReMob0uXT9uwZEKK7-28">
          <mxGeometry relative="1" as="geometry" />
        </mxCell>
        <mxCell id="3GkReMob0uXT9uwZEKK7-59" style="edgeStyle=orthogonalEdgeStyle;rounded=0;orthogonalLoop=1;jettySize=auto;html=1;" edge="1" parent="1" source="3GkReMob0uXT9uwZEKK7-25">
          <mxGeometry relative="1" as="geometry">
            <mxPoint x="360" y="240" as="targetPoint" />
          </mxGeometry>
        </mxCell>
        <mxCell id="3GkReMob0uXT9uwZEKK7-60" style="edgeStyle=orthogonalEdgeStyle;rounded=0;orthogonalLoop=1;jettySize=auto;html=1;entryX=0;entryY=0.5;entryDx=0;entryDy=0;" edge="1" parent="1" source="3GkReMob0uXT9uwZEKK7-25" target="3GkReMob0uXT9uwZEKK7-45">
          <mxGeometry relative="1" as="geometry" />
        </mxCell>
        <mxCell id="3GkReMob0uXT9uwZEKK7-25" value="CLIENTE" style="whiteSpace=wrap;html=1;" vertex="1" parent="1">
          <mxGeometry x="220" y="230" width="120" height="60" as="geometry" />
        </mxCell>
        <mxCell id="3GkReMob0uXT9uwZEKK7-27" value="MANOBRISTA" style="whiteSpace=wrap;html=1;" vertex="1" parent="1">
          <mxGeometry x="90" y="230" width="120" height="60" as="geometry" />
        </mxCell>
        <mxCell id="3GkReMob0uXT9uwZEKK7-35" style="edgeStyle=orthogonalEdgeStyle;rounded=0;orthogonalLoop=1;jettySize=auto;html=1;entryX=0;entryY=0.5;entryDx=0;entryDy=0;" edge="1" parent="1" source="3GkReMob0uXT9uwZEKK7-28" target="3GkReMob0uXT9uwZEKK7-24">
          <mxGeometry relative="1" as="geometry" />
        </mxCell>
        <mxCell id="3GkReMob0uXT9uwZEKK7-28" value="VEÍCULO" style="whiteSpace=wrap;html=1;" vertex="1" parent="1">
          <mxGeometry x="320" y="310" width="120" height="60" as="geometry" />
        </mxCell>
        <mxCell id="3GkReMob0uXT9uwZEKK7-32" style="edgeStyle=orthogonalEdgeStyle;rounded=0;orthogonalLoop=1;jettySize=auto;html=1;" edge="1" parent="1" source="3GkReMob0uXT9uwZEKK7-29">
          <mxGeometry relative="1" as="geometry">
            <mxPoint x="130" y="220" as="targetPoint" />
          </mxGeometry>
        </mxCell>
        <mxCell id="3GkReMob0uXT9uwZEKK7-33" style="edgeStyle=orthogonalEdgeStyle;rounded=0;orthogonalLoop=1;jettySize=auto;html=1;" edge="1" parent="1" source="3GkReMob0uXT9uwZEKK7-29">
          <mxGeometry relative="1" as="geometry">
            <mxPoint x="290" y="220" as="targetPoint" />
          </mxGeometry>
        </mxCell>
        <mxCell id="3GkReMob0uXT9uwZEKK7-29" value="PESSOAS" style="whiteSpace=wrap;html=1;" vertex="1" parent="1">
          <mxGeometry x="150" y="160" width="120" height="60" as="geometry" />
        </mxCell>
        <mxCell id="3GkReMob0uXT9uwZEKK7-39" style="edgeStyle=orthogonalEdgeStyle;rounded=0;orthogonalLoop=1;jettySize=auto;html=1;" edge="1" parent="1" source="3GkReMob0uXT9uwZEKK7-38">
          <mxGeometry relative="1" as="geometry">
            <mxPoint x="560" y="410" as="targetPoint" />
          </mxGeometry>
        </mxCell>
        <mxCell id="3GkReMob0uXT9uwZEKK7-38" value="" style="ellipse;whiteSpace=wrap;html=1;" vertex="1" parent="1">
          <mxGeometry x="610" y="390" width="90" height="40" as="geometry" />
        </mxCell>
        <mxCell id="3GkReMob0uXT9uwZEKK7-42" style="edgeStyle=orthogonalEdgeStyle;rounded=0;orthogonalLoop=1;jettySize=auto;html=1;" edge="1" parent="1" source="3GkReMob0uXT9uwZEKK7-41">
          <mxGeometry relative="1" as="geometry">
            <mxPoint x="450" y="315" as="targetPoint" />
          </mxGeometry>
        </mxCell>
        <mxCell id="3GkReMob0uXT9uwZEKK7-41" value="" style="ellipse;whiteSpace=wrap;html=1;" vertex="1" parent="1">
          <mxGeometry x="470" y="300" width="70" height="30" as="geometry" />
        </mxCell>
        <mxCell id="3GkReMob0uXT9uwZEKK7-45" value="NOME" style="ellipse;whiteSpace=wrap;html=1;" vertex="1" parent="1">
          <mxGeometry x="340" y="160" width="80" height="30" as="geometry" />
        </mxCell>
        <mxCell id="3GkReMob0uXT9uwZEKK7-46" value="COR" style="ellipse;whiteSpace=wrap;html=1;" vertex="1" parent="1">
          <mxGeometry x="560" y="90" width="80" height="30" as="geometry" />
        </mxCell>
        <mxCell id="3GkReMob0uXT9uwZEKK7-47" value="PLACA" style="ellipse;whiteSpace=wrap;html=1;" vertex="1" parent="1">
          <mxGeometry x="560" y="130" width="80" height="30" as="geometry" />
        </mxCell>
        <mxCell id="3GkReMob0uXT9uwZEKK7-48" value="CPF" style="ellipse;whiteSpace=wrap;html=1;" vertex="1" parent="1">
          <mxGeometry x="350" y="200" width="80" height="30" as="geometry" />
        </mxCell>
        <mxCell id="3GkReMob0uXT9uwZEKK7-49" value="MODELO" style="ellipse;whiteSpace=wrap;html=1;" vertex="1" parent="1">
          <mxGeometry x="560" y="210" width="80" height="30" as="geometry" />
        </mxCell>
        <mxCell id="3GkReMob0uXT9uwZEKK7-55" style="edgeStyle=orthogonalEdgeStyle;rounded=0;orthogonalLoop=1;jettySize=auto;html=1;" edge="1" parent="1" source="3GkReMob0uXT9uwZEKK7-50">
          <mxGeometry relative="1" as="geometry">
            <mxPoint x="590" y="310" as="targetPoint" />
          </mxGeometry>
        </mxCell>
        <mxCell id="3GkReMob0uXT9uwZEKK7-56" style="edgeStyle=orthogonalEdgeStyle;rounded=0;orthogonalLoop=1;jettySize=auto;html=1;" edge="1" parent="1" source="3GkReMob0uXT9uwZEKK7-50">
          <mxGeometry relative="1" as="geometry">
            <mxPoint x="710" y="310" as="targetPoint" />
          </mxGeometry>
        </mxCell>
        <mxCell id="3GkReMob0uXT9uwZEKK7-50" value="VAGAS" style="ellipse;whiteSpace=wrap;html=1;" vertex="1" parent="1">
          <mxGeometry x="610" y="270" width="80" height="30" as="geometry" />
        </mxCell>
        <mxCell id="3GkReMob0uXT9uwZEKK7-51" value="OCUPADO" style="ellipse;whiteSpace=wrap;html=1;" vertex="1" parent="1">
          <mxGeometry x="580" y="320" width="70" height="20" as="geometry" />
        </mxCell>
        <mxCell id="3GkReMob0uXT9uwZEKK7-53" value="VAGO" style="ellipse;whiteSpace=wrap;html=1;" vertex="1" parent="1">
          <mxGeometry x="660" y="320" width="70" height="20" as="geometry" />
        </mxCell>
        <mxCell id="3GkReMob0uXT9uwZEKK7-57" value="LOGRADOURO" style="ellipse;whiteSpace=wrap;html=1;" vertex="1" parent="1">
          <mxGeometry x="180" y="50" width="100" height="30" as="geometry" />
        </mxCell>
        <mxCell id="3GkReMob0uXT9uwZEKK7-58" value="CNPJ" style="ellipse;whiteSpace=wrap;html=1;" vertex="1" parent="1">
          <mxGeometry x="180" y="90" width="100" height="30" as="geometry" />
        </mxCell>
      </root>
    </mxGraphModel>
  </diagram>
</mxfile>
